<?xml version="1.0" encoding="utf-8"?>
<!-- Generator: Adobe Illustrator 24.2.0, SVG Export Plug-In . SVG Version: 6.00 Build 0)  -->
<svg version="1.1" id="Layer_1" xmlns="http://www.w3.org/2000/svg" xmlns:xlink="http://www.w3.org/1999/xlink" x="0px" y="0px"
	 viewBox="0 0 1280 1024" style="enable-background:new 0 0 1280 1024;" xml:space="preserve">
<g>
	<g>
		<path d="M213.2,193.77c-2.56-4.73-6.39-10.15-12.57-8.82c-6.32,1.36-5.47,9.35-4.44,14.16c1.13,5.26,5.13,9.08,10.68,8.75
			c4.7-0.28,9.31-3.02,11.69-7.11c3.23-5.53,3.09-12.25,2.46-18.41c-0.29-2.83-0.3-6.24-2.21-8.55c-1.85-2.23-4.89-2.81-7.61-3.15
			c-10.56-1.31-22.37,3.23-27.78,12.73c-5.45,9.58-2.96,23.4,6.74,29.28c1.66,1,3.17-1.59,1.51-2.59
			c-7.01-4.24-9.48-13.45-7.35-21.08c2.42-8.67,10.87-14.12,19.45-15.32c2.22-0.31,4.49-0.33,6.72-0.11
			c2.05,0.21,4.89,0.54,6.19,2.36c0.71,0.99,0.87,2.33,1.01,3.51c0.16,1.32,0.3,2.64,0.42,3.96c0.24,2.65,0.37,5.33,0.14,7.99
			c-0.39,4.56-2.05,9.18-6.09,11.68c-2.96,1.84-7.28,2.76-10.26,0.45c-2.16-1.67-2.85-4.59-3.14-7.17
			c-0.25-2.22-0.98-5.95,0.89-7.67c1.57-1.44,4.19-1.06,5.85-0.03c2.4,1.5,3.79,4.22,5.09,6.63
			C211.53,196.99,214.13,195.47,213.2,193.77L213.2,193.77z"/>
	</g>
</g>
</svg>
